<svg width="9" height="15" viewBox="0 0 9 15" fill="none" xmlns="http://www.w3.org/2000/svg">
<path d="M4.5 0.370361L3.9375 1.08104C3.9375 1.08104 2.9775 2.30781 2.01 3.89838C1.0425 5.48894 0 7.39255 0 9.22001C0 10.5663 0.474106 11.8575 1.31802 12.8095C2.16193 13.7615 3.30653 14.2963 4.5 14.2963C5.69347 14.2963 6.83807 13.7615 7.68198 12.8095C8.52589 11.8575 9 10.5663 9 9.22001C9 7.39255 7.9575 5.48894 6.99 3.89838C6.39325 2.92054 5.7498 1.98004 5.0625 1.08104L4.5 0.370361ZM4.5 3.01849C4.83 3.45843 5.13 3.82223 5.76 4.85441C6.6675 6.34345 7.5 8.23859 7.5 9.22001C7.5 11.0982 6.165 12.6042 4.5 12.6042C2.835 12.6042 1.5 11.0982 1.5 9.22001C1.5 8.23859 2.3325 6.34345 3.24 4.85441C3.87 3.82223 4.17 3.45843 4.5 3.01849Z" fill="black"/>
</svg>
