<svg width="40" height="49" viewBox="0 0 40 49" fill="none" xmlns="http://www.w3.org/2000/svg">
<path d="M18.1818 9.35469V0.703735H21.8182V9.35469H18.1818ZM30.2727 15.3022L27.7727 12.3285L32.8636 6.11058L35.4091 9.19248L30.2727 15.3022ZM32.7273 26.6566V22.3311H40V26.6566H32.7273ZM18.1818 48.284V39.633H21.8182V48.284H18.1818ZM9.72727 15.1941L4.54545 9.19248L7.13636 6.16465L12.2727 12.2744L9.72727 15.1941ZM32.8182 42.8771L27.7727 36.6593L30.2273 33.7396L35.4091 39.6871L32.8182 42.8771ZM0 26.6566V22.3311H7.27273V26.6566H0ZM7.13636 42.8771L4.59091 39.7952L9.68182 33.7396L11 35.1994L12.3182 36.7133L7.13636 42.8771ZM20 37.4703C16.9697 37.4703 14.3939 36.2087 12.2727 33.6855C10.1515 31.1623 9.09091 28.0984 9.09091 24.4939C9.09091 20.8893 10.1515 17.8254 12.2727 15.3022C14.3939 12.779 16.9697 11.5174 20 11.5174C23.0303 11.5174 25.6061 12.779 27.7273 15.3022C29.8485 17.8254 30.9091 20.8893 30.9091 24.4939C30.9091 28.0984 29.8485 31.1623 27.7273 33.6855C25.6061 36.2087 23.0303 37.4703 20 37.4703ZM20 33.1448C22 33.1448 23.7121 32.2977 25.1364 30.6036C26.5606 28.9094 27.2727 26.8729 27.2727 24.4939C27.2727 22.1148 26.5606 20.0783 25.1364 18.3841C23.7121 16.69 22 15.8429 20 15.8429C18 15.8429 16.2879 16.69 14.8636 18.3841C13.4394 20.0783 12.7273 22.1148 12.7273 24.4939C12.7273 26.8729 13.4394 28.9094 14.8636 30.6036C16.2879 32.2977 18 33.1448 20 33.1448Z" fill="#FFC107"/>
</svg>
