<svg width="30" height="30" viewBox="0 0 30 30" fill="none" xmlns="http://www.w3.org/2000/svg">
<circle cx="15" cy="15" r="15" fill="#D9D9D9"/>
<path fill-rule="evenodd" clip-rule="evenodd" d="M15 5C12.2386 5 10 7.23858 10 10C10 12.7614 12.2386 15 15 15C17.7614 15 20 12.7614 20 10C20 7.23858 17.7614 5 15 5ZM12 10C12 8.34315 13.3431 7 15 7C16.6569 7 18 8.34315 18 10C18 11.6569 16.6569 13 15 13C13.3431 13 12 11.6569 12 10Z" fill="#2D3648"/>
<path d="M11 17C9.67392 17 8.40215 17.5268 7.46447 18.4645C6.52678 19.4021 6 20.6739 6 22V24C6 24.5523 6.44772 25 7 25C7.55228 25 8 24.5523 8 24V22C8 21.2043 8.31607 20.4413 8.87868 19.8787C9.44129 19.3161 10.2044 19 11 19H19C19.7956 19 20.5587 19.3161 21.1213 19.8787C21.6839 20.4413 22 21.2044 22 22V24C22 24.5523 22.4477 25 23 25C23.5523 25 24 24.5523 24 24V22C24 20.6739 23.4732 19.4021 22.5355 18.4645C21.5979 17.5268 20.3261 17 19 17H11Z" fill="#2D3648"/>
</svg>
