<svg width="46" height="54" viewBox="0 0 46 54" fill="none" xmlns="http://www.w3.org/2000/svg">
<path d="M26.7374 49.255C26.2583 49.5516 25.7711 49.5979 25.276 49.394C24.7808 49.1901 24.4055 48.8101 24.1499 48.2541L21.2749 41.5812C21.0194 41.0252 20.9794 40.4598 21.1551 39.8852C21.3308 39.3106 21.6583 38.875 22.1374 38.5784C22.6166 38.2819 23.1037 38.2355 23.5989 38.4394C24.094 38.6433 24.4694 39.0233 24.7249 39.5794L27.5999 46.2522C27.8555 46.8083 27.8954 47.3736 27.7197 47.9482C27.544 48.5228 27.2166 48.9584 26.7374 49.255ZM38.2374 49.255C37.7583 49.5516 37.2711 49.5979 36.776 49.394C36.2808 49.1901 35.9055 48.8101 35.6499 48.2541L32.7749 41.5812C32.5194 41.0252 32.4794 40.4598 32.6551 39.8852C32.8308 39.3106 33.1583 38.875 33.6374 38.5784C34.1166 38.2819 34.6037 38.2355 35.0989 38.4394C35.594 38.6433 35.9694 39.0233 36.2249 39.5794L39.0999 46.2522C39.3555 46.8083 39.3954 47.3736 39.2197 47.9482C39.044 48.5228 38.7166 48.9584 38.2374 49.255ZM15.2374 49.255C14.7583 49.5516 14.2711 49.5979 13.776 49.394C13.2808 49.1901 12.9055 48.8101 12.6499 48.2541L9.77492 41.5812C9.51936 41.0252 9.47943 40.4598 9.65513 39.8852C9.83082 39.3106 10.1583 38.875 10.6374 38.5784C11.1166 38.2819 11.6037 38.2355 12.0989 38.4394C12.594 38.6433 12.9694 39.0233 13.2249 39.5794L16.0999 46.2522C16.3555 46.8083 16.3954 47.3736 16.2197 47.9482C16.044 48.5228 15.7166 48.9584 15.2374 49.255ZM14.3749 36.1317C11.468 36.1317 8.98429 34.9362 6.92388 32.5451C4.86346 30.154 3.83325 27.2717 3.83325 23.8982C3.83325 20.8213 4.71172 18.1336 6.46867 15.8352C8.22561 13.5368 10.3978 12.1837 12.9853 11.7759C14.0076 9.66281 15.4051 8.00387 17.178 6.79905C18.951 5.59423 20.8916 4.99182 22.9999 4.99182C25.8749 4.99182 28.3746 6.05762 30.4989 8.18922C32.6232 10.3208 33.9089 12.9807 34.3562 16.1688C36.5603 16.3913 38.4131 17.4478 39.9145 19.3384C41.4159 21.2291 42.1666 23.4904 42.1666 26.1225C42.1666 28.9028 41.328 31.2661 39.651 33.2124C37.9739 35.1586 35.9374 36.1317 33.5416 36.1317H14.3749ZM14.3749 31.6832H33.5416C34.8833 31.6832 36.0173 31.1456 36.9437 30.0706C37.8701 28.9955 38.3333 27.6795 38.3333 26.1225C38.3333 24.5655 37.8701 23.2495 36.9437 22.1744C36.0173 21.0993 34.8833 20.5618 33.5416 20.5618H30.6666V18.3375C30.6666 15.8908 29.9159 13.7963 28.4145 12.0539C26.9131 10.3116 25.1083 9.44038 22.9999 9.44038C21.4666 9.44038 20.069 9.92231 18.8072 10.8862C17.5454 11.85 16.5951 13.1475 15.9562 14.7787L15.477 16.1132H14.2791C12.4583 16.1874 10.901 16.9751 9.60721 18.4765C8.31346 19.9779 7.66659 21.7851 7.66659 23.8982C7.66659 26.0483 8.32145 27.8834 9.63117 29.4033C10.9409 30.9232 12.5221 31.6832 14.3749 31.6832Z" fill="#FFC107"/>
</svg>
