<svg width="27" height="24" viewBox="0 0 27 24" fill="none" xmlns="http://www.w3.org/2000/svg">
<path fill-rule="evenodd" clip-rule="evenodd" d="M13.3353 3.5C8.34823 3.5 4.29111 7.313 4.29111 12C4.29111 16.687 8.34823 20.5 13.3353 20.5C18.3224 20.5 22.3795 16.687 22.3795 12C22.3795 7.313 18.3224 3.5 13.3353 3.5ZM13.3353 22C7.46828 22 2.69507 17.514 2.69507 12C2.69507 6.486 7.46828 2 13.3353 2C19.2023 2 23.9756 6.486 23.9756 12C23.9756 17.514 19.2023 22 13.3353 22Z" fill="black"/>
<path fill-rule="evenodd" clip-rule="evenodd" d="M11.8017 16.2207C11.5975 16.2207 11.3921 16.1477 11.2368 15.9997C10.9261 15.7057 10.9271 15.2317 11.2389 14.9397L14.3799 11.9997L11.2389 9.06068C10.9271 8.76868 10.9261 8.29368 11.2368 7.99968C11.5474 7.70468 12.0518 7.70668 12.3646 7.99768L16.0738 11.4687C16.2238 11.6097 16.3079 11.8007 16.3079 11.9997C16.3079 12.1997 16.2238 12.3907 16.0738 12.5317L12.3646 16.0017C12.2093 16.1477 12.005 16.2207 11.8017 16.2207Z" fill="black"/>
</svg>
