<svg width="42" height="51" viewBox="0 0 42 51" fill="none" xmlns="http://www.w3.org/2000/svg">
<path d="M0 23.9708C0 26.7197 0.668918 29.1714 2.00676 31.326C3.34459 33.4805 5.06757 34.9664 7.19595 35.7589L5.87838 39.9194C5.81757 40.2661 5.91892 40.4642 6.16216 40.4642H10.4797L8.37162 49.8253H8.93919L16.9865 36.8981C17.0676 36.799 17.0676 36.6752 17.027 36.5513C16.9865 36.4275 16.8851 36.378 16.7432 36.378H12.3243L17.3513 24.8871C17.473 24.5404 17.3919 24.367 17.0676 24.367H11.1081C10.9257 24.367 10.7635 24.4908 10.6622 24.7137L8.4527 31.8213C7.01351 31.3755 5.81757 30.4097 4.86486 28.9485C3.91216 27.4874 3.44595 25.8282 3.44595 23.9708C3.44595 21.9153 4.01351 20.1322 5.14865 18.6216C6.28378 17.1109 7.7027 16.2441 9.40541 15.9965L10.4595 15.8231C10.723 15.8231 10.8649 15.6746 10.8649 15.4021L11.0068 14.1144C11.2095 11.4398 12.1216 9.18616 13.7635 7.37832C15.4054 5.57048 17.3311 4.65418 19.5405 4.65418C21.75 4.65418 23.6757 5.57048 25.3176 7.37832C26.9797 9.18616 27.9122 11.4398 28.1554 14.1144L28.277 15.5507C28.277 15.8479 28.3986 15.9965 28.6622 15.9965H31.9257C33.7703 15.9965 35.3311 16.789 36.6284 18.3492C37.9257 19.9093 38.5743 21.7915 38.5743 23.9956C38.5743 26.1006 37.9662 27.9332 36.7703 29.4686C35.5743 31.004 34.0946 31.846 32.3311 32.0194C32.0676 32.0194 31.9257 32.168 31.9257 32.4899V35.8827C31.9257 36.1551 32.0676 36.3037 32.3311 36.3037C33.6486 36.2542 34.9054 35.8827 36.1014 35.214C37.2973 34.5454 38.3311 33.6539 39.1824 32.5642C40.0338 31.4745 40.723 30.1868 41.2297 28.6761C41.7365 27.1902 42 25.63 42 24.0203C42 21.7915 41.5541 19.736 40.6419 17.8539C39.7297 15.9717 38.5135 14.4858 36.973 13.3962C35.4324 12.3065 33.75 11.7617 31.9459 11.7617H31.2973C30.6284 8.46797 29.2095 5.7686 27.0203 3.68835C24.8311 1.6081 22.3581 0.543213 19.5608 0.543213C16.7027 0.543213 14.1486 1.63287 11.9392 3.78741C9.72973 5.94196 8.31081 8.71562 7.68243 12.1084C5.4527 12.7523 3.60811 14.1639 2.14865 16.3927C0.689189 18.6216 0 21.1228 0 23.9708ZM16.5405 48.389C16.5405 48.7852 16.6419 49.1567 16.8446 49.5281C17.0473 49.8996 17.3716 50.172 17.777 50.3206C18.0608 50.3949 18.223 50.4444 18.2838 50.4444C18.4662 50.4444 18.7095 50.3701 19.0541 50.1968C19.4797 49.9739 19.7635 49.5281 19.9054 48.909L20.473 46.3087C20.5946 45.7639 20.5541 45.2438 20.3108 44.7485C20.0676 44.2532 19.723 43.9313 19.2365 43.7579C18.7905 43.6093 18.3649 43.6589 17.9595 43.956C17.5541 44.2532 17.2703 44.6742 17.1284 45.2686L16.5811 47.7451C16.5608 48.1661 16.5405 48.389 16.5405 48.389ZM19.2568 36.5761C19.2568 36.9228 19.3581 37.2943 19.5608 37.6658C19.7635 38.0372 20.0676 38.3097 20.473 38.483C20.9189 38.6564 21.3649 38.6316 21.7703 38.3592C22.1757 38.0868 22.4392 37.6658 22.5811 37.0714L23.1892 34.4959C23.3108 33.951 23.25 33.431 23.027 32.9357C22.7838 32.4404 22.4189 32.0937 21.9527 31.9203C21.4865 31.7717 21.0608 31.8213 20.6351 32.1184C20.2095 32.4156 19.9459 32.8366 19.8041 33.4062L19.3176 35.9075C19.277 36.3285 19.2568 36.5513 19.2568 36.5761ZM24.973 40.6623C24.973 41.0833 25.0743 41.5043 25.2973 41.9253C25.5203 42.3463 25.8446 42.6187 26.25 42.7921C26.2905 42.7921 26.3716 42.8169 26.4932 42.8416C26.5946 42.8664 26.6757 42.8912 26.7365 42.8912C27 42.8912 27.2635 42.8416 27.5068 42.693C27.8919 42.5197 28.1757 42.0492 28.3378 41.2814L28.8446 38.7802C28.9865 38.2106 28.9459 37.6658 28.723 37.1457C28.5 36.6256 28.1554 36.2789 27.7095 36.1056C27.2027 35.957 26.7365 36.0313 26.3311 36.3037C25.9257 36.6009 25.6622 37.0466 25.5811 37.6162L25.0338 40.167C24.9932 40.3156 24.973 40.489 24.973 40.6623ZM27.7297 28.7999C27.7095 29.1962 27.8108 29.5677 28.0338 29.9639C28.2568 30.3601 28.5811 30.6573 29.027 30.905C29.1892 31.004 29.3513 31.0535 29.5541 31.0535C29.777 31.0535 30 30.9792 30.2432 30.8554C30.6689 30.6078 30.9527 30.1372 31.1351 29.4438L31.723 26.893C31.7635 26.5711 31.7838 26.3977 31.7838 26.3482C31.7838 25.9272 31.6824 25.531 31.4595 25.1347C31.2365 24.7385 30.9122 24.4661 30.4662 24.3175C30.4257 24.3175 30.3446 24.2927 30.2432 24.268C30.1216 24.1937 30.0405 24.1937 29.9797 24.1937C29.6351 24.1937 29.3108 24.3175 28.9865 24.5651C28.6622 24.8128 28.4392 25.209 28.3176 25.7539L27.7703 28.2551C27.75 28.4532 27.7297 28.6266 27.7297 28.7999Z" fill="#FFC107"/>
</svg>
