<svg width="44" height="54" viewBox="0 0 44 54" fill="none" xmlns="http://www.w3.org/2000/svg">
<path d="M0 32.277C0 34.9233 0.750185 37.2114 2.26686 39.1215C3.78354 41.0315 5.62639 42.0463 7.82802 42.1657C8.00741 42.1657 8.10526 42.0463 8.10526 41.8274V39.1613C8.10526 38.9424 8.00741 38.823 7.82802 38.823C6.4255 38.7434 5.23499 38.0471 4.25649 36.7737C3.27798 35.5003 2.78873 33.9881 2.78873 32.277C2.78873 30.6455 3.24537 29.2129 4.17494 27.9793C5.10452 26.7458 6.24611 26.0494 7.5997 25.8504L8.46405 25.7509C8.67606 25.7509 8.79022 25.6315 8.79022 25.4127L8.90437 24.3383C9.08377 22.1894 9.81764 20.3788 11.1386 18.9264C12.4596 17.4739 14.0089 16.7377 15.7865 16.7377C17.5641 16.7377 19.1134 17.4739 20.4507 18.9264C21.788 20.3788 22.5382 22.1894 22.7339 24.3383L22.848 25.4724C22.848 25.7111 22.9459 25.8504 23.1253 25.8504H25.7672C27.2187 25.8504 28.4581 26.4871 29.5182 27.7605C30.5782 29.0339 31.1001 30.5261 31.1001 32.277C31.1001 34.008 30.6108 35.5003 29.6323 36.7737C28.6538 38.0471 27.4633 38.7235 26.0771 38.823C25.8814 38.823 25.7672 38.9424 25.7672 39.1613V41.8274C25.7672 42.0463 25.8651 42.1657 26.0771 42.1657C28.2461 42.0861 30.089 41.0713 31.6056 39.1613C33.1223 37.2313 33.8725 34.9432 33.8725 32.2969C33.8725 30.8644 33.6442 29.5313 33.1875 28.2977C34.4596 26.3677 35.0956 24.1791 35.0956 21.7119C35.0956 19.8217 34.7042 18.0708 33.9377 16.4592C33.1712 14.8476 32.1275 13.5742 30.8065 12.639C29.4855 11.7039 28.0667 11.2463 26.5337 11.2463C23.9896 11.2463 21.8858 12.4003 20.2061 14.7083C18.8688 13.8328 17.401 13.3951 15.7865 13.3951C13.487 13.3951 11.4322 14.2706 9.65456 16.0215C7.87695 17.7724 6.73536 20.0008 6.2298 22.7067C4.41957 23.224 2.93551 24.3781 1.7613 26.1688C0.587101 27.9594 0 29.9889 0 32.277ZM8.80652 45.9261C8.80652 46.2644 8.88807 46.5827 9.06746 46.9011C9.24685 47.2194 9.50778 47.4383 9.86657 47.5576C10.046 47.5974 10.1927 47.6372 10.3069 47.6372C10.9429 47.6372 11.3669 47.2194 11.5626 46.3638L14.1394 34.6646C14.2535 34.1871 14.2046 33.7494 14.0089 33.3315C13.8132 32.9137 13.5196 32.675 13.1446 32.5755C12.7858 32.4362 12.4433 32.476 12.1171 32.7147C11.791 32.9336 11.5626 33.2719 11.4485 33.7295L8.87176 45.4884C8.83914 45.7471 8.80652 45.8863 8.80652 45.9261ZM13.063 52.0543C13.063 52.4323 13.1446 52.7706 13.3076 53.0889C13.4707 53.4073 13.748 53.6062 14.1557 53.6858C14.3351 53.7256 14.4818 53.7654 14.5797 53.7654C14.8406 53.7654 15.0852 53.646 15.3136 53.4272C15.5419 53.1884 15.6887 52.8701 15.7539 52.4721L19.6679 34.7044C19.7658 34.2468 19.7331 33.8091 19.5537 33.431C19.3744 33.053 19.0971 32.7744 18.7383 32.6352C18.3632 32.4959 18.0044 32.5357 17.6783 32.7744C17.3521 32.9933 17.1238 33.3315 17.0259 33.7892L13.1119 51.5569C13.0793 51.8553 13.063 52.0344 13.063 52.0543ZM13.748 7.82404C13.748 8.30156 13.8784 8.69949 14.1557 9.03773L15.2157 10.3509C15.5256 10.6494 15.8681 10.7886 16.2268 10.7886C16.5693 10.7886 16.8955 10.6295 17.1727 10.331C17.45 10.0127 17.5967 9.63463 17.5967 9.15711C17.5967 8.67959 17.4663 8.24187 17.2053 7.88373L16.1616 6.59045C15.8681 6.2522 15.5419 6.09303 15.1831 6.09303C14.7917 6.09303 14.4492 6.2721 14.172 6.61034C13.8947 6.94859 13.748 7.36641 13.748 7.82404ZM19.831 45.9659C19.831 46.2843 19.9125 46.6026 20.0756 46.9011C20.2387 47.1995 20.4996 47.4184 20.8258 47.5378C21.0052 47.5775 21.152 47.6173 21.2335 47.6173C21.5107 47.6173 21.788 47.5179 22.0326 47.3189C22.2772 47.1199 22.4403 46.8016 22.5219 46.344L25.0986 34.6447C25.1964 34.1871 25.1638 33.7494 24.9844 33.3713C24.805 32.9734 24.5278 32.7147 24.169 32.5755C23.7776 32.4362 23.4351 32.476 23.109 32.7147C22.7828 32.9336 22.5708 33.2719 22.4729 33.7295L19.8962 45.4884C19.8636 45.7868 19.831 45.946 19.831 45.9659ZM22.4893 16.6383C23.6471 15.3052 24.9844 14.6486 26.5337 14.6486C28.132 14.6486 29.5019 15.345 30.6108 16.7178C31.7361 18.0907 32.2906 19.762 32.2906 21.7318C32.2906 22.9654 32.0133 24.199 31.4426 25.4127C29.8606 23.4827 27.9689 22.5277 25.7509 22.5277H25.2127C24.7724 20.1799 23.8592 18.23 22.4893 16.6383ZM25.1312 6.19251C25.1312 6.65014 25.2617 7.04807 25.5389 7.36641C25.8162 7.68476 26.1423 7.84393 26.5337 7.84393C26.9088 7.84393 27.235 7.68476 27.4959 7.38631C27.7569 7.06797 27.8873 6.68993 27.8873 6.21241V2.1137C27.8873 1.59639 27.7569 1.17856 27.5122 0.86021C27.2513 0.541864 26.9414 0.38269 26.55 0.38269C26.1423 0.38269 25.7999 0.541864 25.5389 0.880107C25.278 1.21835 25.1475 1.61628 25.1475 2.1137V6.19251H25.1312ZM34.1497 10.7289C34.1497 11.2065 34.2965 11.6044 34.5901 11.9029C34.8184 12.2212 35.1119 12.3804 35.487 12.4202C35.8621 12.46 36.2046 12.2809 36.4981 11.9029L38.8466 9.05763C39.1401 8.71939 39.2706 8.30156 39.2706 7.80414C39.2706 7.32662 39.1401 6.90879 38.8629 6.59045C38.5856 6.2721 38.2594 6.11293 37.868 6.11293C37.5256 6.11293 37.2157 6.2721 36.9222 6.61034L34.5901 9.47546C34.2965 9.8137 34.1497 10.2315 34.1497 10.7289ZM35.4707 34.3065C35.4707 34.784 35.6012 35.2018 35.8621 35.56L36.9222 36.8135C37.2157 37.092 37.5419 37.2313 37.9007 37.2313L37.9333 37.2711C38.3084 37.2711 38.6182 37.1119 38.8792 36.7936C39.1401 36.4752 39.2706 36.0574 39.2706 35.5799C39.2706 35.1023 39.1238 34.7243 38.8466 34.4259L37.8354 33.1127C37.5419 32.7943 37.1994 32.6352 36.8243 32.6352C36.4492 32.6352 36.1231 32.7943 35.8621 33.1326C35.6012 33.4708 35.4707 33.829 35.4707 34.3065ZM37.8517 21.7119C37.8517 22.1894 37.9985 22.5675 38.2758 22.8858C38.5693 23.2439 38.8955 23.4031 39.2869 23.4031H42.5975C42.9889 23.4031 43.315 23.2439 43.5923 22.9057C43.8695 22.5675 44 22.1695 44 21.7119C44 21.2344 43.8695 20.8364 43.5923 20.4982C43.315 20.16 42.9889 19.9809 42.5975 19.9809H39.2869C38.8955 19.9809 38.5693 20.16 38.2758 20.4982C37.9822 20.8364 37.8517 21.2344 37.8517 21.7119Z" fill="#FFC107"/>
</svg>
