<svg width="34" height="36" viewBox="0 0 34 36" fill="none" xmlns="http://www.w3.org/2000/svg">
<path d="M17.17 36C14.79 36 12.5588 35.52 10.4762 34.56C8.39375 33.6 6.58042 32.3025 5.03625 30.6675C3.49208 29.0325 2.26667 27.1125 1.36 24.9075C0.453333 22.7025 0 20.34 0 17.82C0 13.44 1.3175 9.5775 3.9525 6.2325C6.5875 2.8875 9.945 0.81 14.025 0C13.515 2.97 13.6708 5.8725 14.4925 8.7075C15.3142 11.5425 16.7308 14.025 18.7425 16.155C20.7542 18.285 23.0987 19.785 25.7762 20.655C28.4538 21.525 31.195 21.69 34 21.15C33.2633 25.47 31.3083 29.025 28.135 31.815C24.9617 34.605 21.3067 36 17.17 36ZM17.17 32.4C19.6633 32.4 21.9725 31.74 24.0975 30.42C26.2225 29.1 27.8942 27.285 29.1125 24.975C26.6758 24.735 24.3667 24.0825 22.185 23.0175C20.0033 21.9525 18.0483 20.505 16.32 18.675C14.5917 16.845 13.2175 14.775 12.1975 12.465C11.1775 10.155 10.5683 7.71 10.37 5.13C8.18833 6.42 6.48125 8.1975 5.24875 10.4625C4.01625 12.7275 3.4 15.18 3.4 17.82C3.4 21.87 4.73875 25.3125 7.41625 28.1475C10.0938 30.9825 13.345 32.4 17.17 32.4Z" fill="#FFC107"/>
</svg>
